#N canvas 486 409 450 300 12;
#N canvas 224 177 684 476 mask 0;
#N canvas 0 22 450 278 (subpatch) 0;
#X array array1 137689 float 2;
#X coords 0 1 137689 -1 200 140 1 0 0;
#X restore 363 242 graph;
#X obj 102 87 openpanel;
#X msg 102 114 read -resize \$1 array1;
#X obj 102 141 soundfiler;
#X obj 102 171 expr 44100 / $f1;
#X floatatom 102 198 5 0 0 0 - - -;
#X obj 102 225 phasor~;
#X obj 102 251 *~;
#X obj 102 277 tabread4~ array1;
#X obj 102 311 *~;
#X obj 102 339 hip~ 5;
#X obj 102 371 dac~;
#X obj 231 237 sel 0 1;
#X msg 231 269 0;
#X msg 272 269 1;
#X obj 102 64 bng 15 250 50 0 empty empty empty 17 7 0 10 -262144 -1
-1;
#X floatatom 231 294 5 0 0 0 - - -;
#X obj 231 210 r tempo1;
#X connect 1 0 2 0;
#X connect 2 0 3 0;
#X connect 3 0 4 0;
#X connect 3 0 7 1;
#X connect 4 0 5 0;
#X connect 5 0 6 0;
#X connect 6 0 7 0;
#X connect 7 0 8 0;
#X connect 8 0 9 0;
#X connect 9 0 10 0;
#X connect 10 0 11 0;
#X connect 10 0 11 1;
#X connect 12 0 13 0;
#X connect 12 1 14 0;
#X connect 13 0 16 0;
#X connect 14 0 16 0;
#X connect 15 0 1 0;
#X connect 16 0 9 1;
#X connect 17 0 12 0;
#X restore 136 86 pd mask;
#X obj 223 67 hradio 15 1 0 2 tempo1 r_tempo1 tempo1_chooser 0 -8 0
10 -262144 -1 -1 0;
#X floatatom 223 87 5 0 0 0 - - -;
#X connect 1 0 2 0;
