#N canvas 530 124 698 471 12;
#X obj 164 91 hradio 15 1 0 2 switch r_switch nomask_switch 0 -8 0
10 -262144 -1 -1 0;
#X floatatom 164 111 5 0 0 0 - - -;
#N canvas 0 22 450 484 nomask 0;
#X obj 141 215 mtof;
#X floatatom 141 244 5 0 0 0 - - -;
#X obj 141 272 osc~ 440;
#X obj 141 303 *~ 0.1;
#X obj 141 336 dac~;
#X floatatom 141 187 5 0 0 0 - - -;
#X obj 141 125 sel 0 1;
#X obj 141 98 r switch;
#X msg 141 155 0;
#X msg 182 154 225;
#X connect 0 0 1 0;
#X connect 1 0 2 0;
#X connect 2 0 3 0;
#X connect 3 0 4 0;
#X connect 3 0 4 1;
#X connect 5 0 0 0;
#X connect 6 0 8 0;
#X connect 6 1 9 0;
#X connect 7 0 6 0;
#X connect 8 0 5 0;
#X connect 9 0 5 0;
#X restore 65 84 pd nomask;
#X obj 167 186 hradio 15 1 0 2 switch1 r_switch1 mask_switch1 0 -8
0 10 -262144 -1 -1 0;
#X floatatom 167 206 5 0 0 0 - - -;
#N canvas 0 22 636 600 mask 0;
#X obj 237 445 mtof;
#X floatatom 237 474 5 0 0 0 - - -;
#X obj 237 502 osc~ 440;
#X obj 237 563 dac~;
#X floatatom 237 420 5 0 0 0 - - -;
#X obj 237 134 bng 15 250 50 0 empty empty empty 17 7 0 10 -262144
-1 -1;
#X obj 237 161 f;
#X obj 237 189 + 1;
#X msg 261 134 -1;
#X floatatom 237 218 5 0 0 0 - - -;
#X floatatom 237 272 5 0 0 0 - - -;
#X obj 267 330 bng 15 250 50 0 empty empty empty 17 7 0 10 -262144
-1 -1;
#X obj 237 330 bng 15 250 50 0 empty empty empty 17 7 0 10 -262144
-1 -1;
#X obj 327 330 bng 15 250 50 0 empty empty empty 17 7 0 10 -262144
-1 -1;
#X obj 297 330 bng 15 250 50 0 empty empty empty 17 7 0 10 -262144
-1 -1;
#X msg 237 354 84;
#X msg 267 378 88;
#X msg 297 354 91;
#X msg 327 377 96;
#X obj 237 107 metro 850;
#X obj 237 78 r switch1;
#X floatatom 308 511 5 0 0 0 - - -;
#X obj 237 532 *~;
#X msg 309 483 0;
#X msg 348 482 0.1;
#X obj 309 454 sel 0 1;
#X obj 308 426 r switch1;
#X obj 237 301 sel 0 1 2 3 4, f 22;
#X obj 357 329 bng 15 250 50 0 empty empty empty 17 7 0 10 -262144
-1 -1;
#X msg 357 353 0;
#X obj 237 246 % 5;
#X connect 0 0 1 0;
#X connect 1 0 2 0;
#X connect 2 0 22 0;
#X connect 4 0 0 0;
#X connect 5 0 6 0;
#X connect 6 0 7 0;
#X connect 7 0 6 1;
#X connect 7 0 9 0;
#X connect 8 0 6 1;
#X connect 9 0 30 0;
#X connect 10 0 27 0;
#X connect 11 0 16 0;
#X connect 12 0 15 0;
#X connect 13 0 18 0;
#X connect 14 0 17 0;
#X connect 15 0 4 0;
#X connect 16 0 4 0;
#X connect 17 0 4 0;
#X connect 18 0 4 0;
#X connect 19 0 5 0;
#X connect 20 0 19 0;
#X connect 21 0 22 1;
#X connect 22 0 3 0;
#X connect 22 0 3 1;
#X connect 23 0 21 0;
#X connect 24 0 21 0;
#X connect 25 0 23 0;
#X connect 25 1 24 0;
#X connect 26 0 25 0;
#X connect 27 0 12 0;
#X connect 27 1 11 0;
#X connect 27 2 14 0;
#X connect 27 3 13 0;
#X connect 27 4 28 0;
#X connect 28 0 29 0;
#X connect 29 0 4 0;
#X connect 30 0 10 0;
#X restore 71 205 pd mask;
#X connect 0 0 1 0;
#X connect 3 0 4 0;
