#N canvas 614 348 651 504 12;
#X obj 178 371 dac~;
#X obj 214 19 r freq;
#X obj 183 116 osc~;
#X obj 131 228 *~;
#X obj 282 199 osc~ 10;
#X obj 249 232 *~;
#X obj 260 75 print freq;
#X obj 163 196 osc~ 1;
#X connect 1 0 2 0;
#X connect 1 0 6 0;
#X connect 2 0 3 0;
#X connect 2 0 5 0;
#X connect 3 0 0 0;
#X connect 4 0 5 1;
#X connect 5 0 0 1;
#X connect 7 0 3 1;
