#N canvas 217 49 569 679 12;
#X obj 167 434 mtof;
#X floatatom 167 463 5 0 0 0 - - -;
#X obj 167 491 osc~ 440;
#X obj 167 552 dac~;
#X floatatom 167 409 5 0 0 0 - - -;
#X obj 167 123 bng 15 250 50 0 empty empty empty 17 7 0 10 -262144
-1 -1;
#X obj 167 150 f;
#X obj 167 178 + 1;
#X msg 191 123 -1;
#X floatatom 167 207 5 0 0 0 - - -;
#X floatatom 167 261 5 0 0 0 - - -;
#X obj 197 319 bng 15 250 50 0 empty empty empty 17 7 0 10 -262144
-1 -1;
#X obj 167 319 bng 15 250 50 0 empty empty empty 17 7 0 10 -262144
-1 -1;
#X obj 257 319 bng 15 250 50 0 empty empty empty 17 7 0 10 -262144
-1 -1;
#X obj 227 319 bng 15 250 50 0 empty empty empty 17 7 0 10 -262144
-1 -1;
#X msg 167 343 84;
#X msg 197 367 88;
#X msg 227 343 91;
#X obj 287 318 bng 15 250 50 0 empty empty empty 17 7 0 10 -262144
-1 -1;
#X obj 167 521 *~ 0.5;
#X obj 167 70 bng 15 250 50 0 empty empty empty 17 7 0 10 -262144 -1
-1;
#X msg 287 342 225;
#X msg 257 365 225;
#X obj 167 290 sel 0 1 2 3 4 5 6, f 22;
#X obj 316 318 bng 15 250 50 0 empty empty empty 17 7 0 10 -262144
-1 -1;
#X msg 317 366 0;
#X obj 167 235 % 7;
#X obj 167 98 metro 600;
#X connect 0 0 1 0;
#X connect 1 0 2 0;
#X connect 2 0 19 0;
#X connect 4 0 0 0;
#X connect 5 0 6 0;
#X connect 6 0 7 0;
#X connect 7 0 6 1;
#X connect 7 0 9 0;
#X connect 8 0 6 1;
#X connect 9 0 26 0;
#X connect 10 0 23 0;
#X connect 11 0 16 0;
#X connect 12 0 15 0;
#X connect 13 0 22 0;
#X connect 14 0 17 0;
#X connect 15 0 4 0;
#X connect 16 0 4 0;
#X connect 17 0 4 0;
#X connect 18 0 21 0;
#X connect 19 0 3 0;
#X connect 19 0 3 1;
#X connect 20 0 27 0;
#X connect 21 0 4 0;
#X connect 22 0 4 0;
#X connect 23 0 12 0;
#X connect 23 1 11 0;
#X connect 23 2 14 0;
#X connect 23 3 13 0;
#X connect 23 4 18 0;
#X connect 23 6 24 0;
#X connect 24 0 25 0;
#X connect 25 0 4 0;
#X connect 26 0 10 0;
#X connect 27 0 5 0;
